<?xml version="1.0" encoding="UTF-8"?>
<svg width="1104px" height="294px" viewBox="0 0 1104 294" version="1.1" xmlns="http://www.w3.org/2000/svg" xmlns:xlink="http://www.w3.org/1999/xlink">
    <!-- Generator: Sketch 53.2 (72643) - https://sketchapp.com -->
    <title>logo</title>
    <desc>Created with Sketch.</desc>
    <defs>
        <path d="M2.51921275,26.9821968 C2.51921275,26.9821968 8.33910331,-0.571768626 35.2107059,0.0090552441 C62.0823086,0.589879114 65.4995314,26.9821968 65.4995314,26.9821968 C65.4995314,26.9821968 65.4995314,44.325389 65.4995314,59.8557132 C65.4995314,62.3844452 71.3776945,68.2848199 69.6982193,78.399748 C68.0187441,88.5146761 65.4995314,96.1008722 41.9868791,101.158336 C18.4742268,106.2158 0,86.8288548 0,86.8288548 L2.51921275,26.9821968 Z" id="path-1"></path>
        <filter x="-5.0%" y="-3.4%" width="110.0%" height="106.9%" filterUnits="objectBoundingBox" id="filter-2">
            <feMorphology radius="3" operator="erode" in="SourceAlpha" result="shadowSpreadInner1"></feMorphology>
            <feGaussianBlur stdDeviation="1.5" in="shadowSpreadInner1" result="shadowBlurInner1"></feGaussianBlur>
            <feOffset dx="0" dy="1" in="shadowBlurInner1" result="shadowOffsetInner1"></feOffset>
            <feComposite in="shadowOffsetInner1" in2="SourceAlpha" operator="arithmetic" k2="-1" k3="1" result="shadowInnerInner1"></feComposite>
            <feColorMatrix values="0 0 0 0 0   0 0 0 0 0   0 0 0 0 0  0 0 0 0.267351676 0" type="matrix" in="shadowInnerInner1"></feColorMatrix>
        </filter>
        <filter x="-46.0%" y="-6.2%" width="192.0%" height="112.4%" filterUnits="objectBoundingBox" id="filter-3">
            <feGaussianBlur stdDeviation="1.39508929" in="SourceGraphic"></feGaussianBlur>
        </filter>
        <filter x="-6.3%" y="-27.8%" width="112.6%" height="155.7%" filterUnits="objectBoundingBox" id="filter-4">
            <feGaussianBlur stdDeviation="1" in="SourceGraphic"></feGaussianBlur>
        </filter>
        <filter x="-21.9%" y="-22.7%" width="143.8%" height="145.4%" filterUnits="objectBoundingBox" id="filter-5">
            <feGaussianBlur stdDeviation="1" in="SourceGraphic"></feGaussianBlur>
        </filter>
    </defs>
    <g id="logo" stroke="none" stroke-width="1" fill="none" fill-rule="evenodd">
        <rect fill="#FFFFFF" x="0" y="0" width="1104" height="294"></rect>
        <g id="led" transform="translate(48.000000, 45.000000)">
            <g id="legs" transform="translate(17.000000, 70.000000)" fill="#838383">
                <rect id="Rectangle" x="0" y="0" width="10.0408163" height="133" rx="5.02040816"></rect>
                <path d="M18.4081633,6.00476925 C18.4081633,2.68842677 21.0989178,0 24.4083976,0 L22.4487452,0 C25.7625832,0 28.4489796,2.68950224 28.4489796,5.99095519 L28.4489796,34.7593735 C28.4489796,38.0680867 30.2472348,42.7511528 32.454709,45.2072934 L36.9942706,50.2582251 C39.2065738,52.7197388 41,57.4099302 41,60.711914 L41,127.003276 C41,130.315175 38.3064612,133 35.0080174,133 L38.6246357,133 C35.3153551,133 32.6326531,130.318636 32.6326531,127.005189 L32.6326531,62.3935449 C32.6326531,59.0827024 30.8455147,54.3887717 28.651425,51.9211185 L22.3893914,44.8783218 C20.1906198,42.405403 18.4081633,37.718615 18.4081633,34.3959369 L18.4081633,6.00476925 Z" id="Rectangle"></path>
            </g>
            <g id="Rectangle-2">
                <use fill="#ED4744" fill-rule="evenodd" xlink:href="#path-1"></use>
                <use fill="black" fill-opacity="1" filter="url(#filter-2)" xlink:href="#path-1"></use>
                <path stroke="#C1413E" stroke-width="2" d="M3.51468606,27.1107712 L1.0174658,86.4349735 C1.11102295,86.5271056 1.22223724,86.635175 1.35079054,86.7581617 C1.87976298,87.2642285 2.50291406,87.8296566 3.2155816,88.4396171 C5.25672656,90.1865994 7.6008994,91.9349995 10.2102226,93.5665322 C20.0675823,99.730048 30.7807053,102.545862 41.7765932,100.180696 C52.7490022,97.8205813 59.4551919,94.8507885 63.3215517,90.9698191 C66.4102065,87.8694932 67.6581577,84.5812429 68.7117252,78.2359513 C69.4800828,73.6083856 68.7353821,69.7534041 66.8398825,65.5961845 C66.4783933,64.8033645 65.3362574,62.5142631 65.3001276,62.4385078 C64.7512227,61.2875894 64.4995314,60.5546597 64.4995314,59.8557132 C64.4995314,57.6429851 64.4995314,57.6429851 64.4995314,55.4140208 C64.4995314,41.9410969 64.4995314,41.9410969 64.4995314,32.0537772 C64.4995314,28.0437978 64.4995314,27.9480497 64.4995314,27.0496365 C64.4710164,26.8477931 64.4120156,26.4986152 64.3152609,26.0215372 C64.1341227,25.1283818 63.8866752,24.1303385 63.5631443,23.0539799 C62.6379694,19.9760049 61.2915403,16.8981716 59.4488802,14.0314739 C54.3436984,6.08914447 46.4840484,1.25295967 35.1890962,1.00882173 C23.6872289,0.760211356 15.2963629,5.67527159 9.45936678,14.0623292 C7.45705423,16.9394102 5.90661601,20.0275706 4.7554324,23.115541 C4.35290044,24.1953051 4.02940677,25.1965862 3.7780351,26.0928513 C3.64716595,26.559465 3.56096875,26.9047417 3.51468606,27.1107712 Z" stroke-linejoin="square"></path>
            </g>
            <g id="entrails" opacity="0.278928895" style="mix-blend-mode: hard-light;" transform="translate(16.000000, 40.000000)" fill="#3C3C3C">
                <polygon id="Rectangle-6" points="0 0 25.5 0 12.75 15.8333333 0 15.8333333"></polygon>
                <polygon id="Rectangle-6" transform="translate(25.075000, 15.000000) scale(-1, -1) translate(-25.075000, -15.000000) " points="16.15 13.8461538 16.15 0 21.1945652 0 21.1945652 13.8461538 34 13.8461538 21.1945652 30 16.15 30"></polygon>
            </g>
            <g id="highlights" opacity="0.39232337" style="mix-blend-mode: screen;" transform="translate(5.000000, 10.000000)" fill="#FFFFFF">
                <path d="M6.96479266,4.73887021 C8.30551475,2.98967303 10.3670304,3.06243036 11.5822664,4.92118532 L10.3931809,3.10242858 C11.6026191,4.95231562 11.6067232,7.94529771 10.3917883,9.80359219 L9.45486844,11.2366507 C8.24558451,13.0863017 7.15919291,16.3671151 7.12021324,18.5771519 L7.23630917,66.7394965 C7.25230169,68.9317505 5.48313021,70.7089234 3.26956278,70.7089234 L6.47495287,70.7089234 C4.26818681,70.7089234 2.47924946,68.90966 2.47924946,66.7053698 L2.47924946,18.5897508 C2.47924946,16.3783967 2.7252916,12.8185085 3.45507053,10.7308665 L6.96479266,4.73887021 Z" id="Rectangle-3" filter="url(#filter-3)" transform="translate(7.030758, 36.905676) rotate(3.000000) translate(-7.030758, -36.905676) "></path>
                <path d="M4.19354839,80.0980392 C4.19354839,77.3041281 6.34056572,76.1379442 9.05166716,77.3652173 L22.7451952,81.3725312 C25.7007907,81.5999524 30.5091175,81.6965638 33.4654631,81.3700029 L47.1529756,77.3604958 C49.8299133,76.0784882 52,77.4500999 52,80.0980392 L52,75.0392157 C52,77.8331268 49.7900747,81.0858948 47.0303698,82.1746995 L33.4654631,85.6374781 C30.5004181,85.8376934 25.6844309,85.9232188 22.7280852,85.6374781 L9.15198118,82.1705509 C6.41351436,81.0259343 4.19354839,77.687155 4.19354839,75.0392157 L4.19354839,80.0980392 Z" id="Rectangle-4" filter="url(#filter-4)"></path>
                <path d="M37.7419355,3.00120634 C37.7419355,1.34368585 39.0726949,0.234154113 40.6800567,0.605472628 L44.3810625,1.87417177 C45.8096461,2.70170267 47.9761183,4.26313392 49.0698868,5.5136139 L50.7947527,8.22887875 C51.4603924,9.73766853 51.5057914,12.2028281 50.8904783,13.7492315 L51.4321023,12.3880234 C50.8193304,13.9280402 49.6437213,14.0127679 48.7744036,12.6004737 L46.8734412,9.8164193 C45.7675057,8.58582725 43.7415609,6.87076508 42.2133598,6.21020995 L40.6660633,5.71469712 C39.0511121,5.35246814 37.7419355,3.7164332 37.7419355,2.05761719 L37.7419355,3.00120634 Z" id="Rectangle-5" filter="url(#filter-5)"></path>
            </g>
        </g>
        <text id="SwiftyGPIO" font-family="GillSans-SemiBold, Gill Sans" font-size="172" font-weight="500" letter-spacing="1.5">
            <tspan x="169" y="204" fill="#6B6B6B">Swifty</tspan>
            <tspan x="633.363281" y="204" fill="#A0A0A0">GPI</tspan>
            <tspan x="918.958984" y="204" fill="#A0A0A0">O</tspan>
        </text>
    </g>
</svg>